<svg width="568" height="164" viewBox="0 0 568 164" fill="none" xmlns="http://www.w3.org/2000/svg">
<path d="M53.8 1.12H65.32L56.92 60H45.4L50.52 24.08L35.48 60H24.52L26.12 23.92L12.76 60H6.36L26.68 5.04C22.5733 6.42666 19.4267 8.66666 17.24 11.76C15.0533 14.8533 13.96 18.6133 13.96 23.04C13.96 24.1067 14.0133 25.04 14.12 25.84C14.28 26.5867 14.52 27.28 14.84 27.92C14.9467 28.1333 15 28.2933 15 28.4C15.0533 28.4533 15.08 28.5067 15.08 28.56C12.2 28.56 10.04 27.9733 8.6 26.8C7.21333 25.5733 6.52 23.7333 6.52 21.28C6.52 18.72 7.29333 16.1333 8.84 13.52C10.44 10.8533 12.6267 8.42666 15.4 6.24C17.9067 4.26666 20.6 2.74666 23.48 1.68C26.36 0.559996 29.1867 -4.76837e-06 31.96 -4.76837e-06C32.9733 -4.76837e-06 33.9867 0.106662 35 0.319996C36.0667 0.479997 37.08 0.746663 38.04 1.12L36.2 43.28L53.8 1.12ZM89.9688 23.68V24.24L90.8488 20H102.369L96.6088 47.2C96.5021 47.68 96.4221 48.1333 96.3688 48.56C96.3154 48.9333 96.2888 49.3333 96.2888 49.76C96.2888 50.9333 96.5554 51.8133 97.0888 52.4C97.6221 52.9333 98.4488 53.2 99.5688 53.2C100.955 53.2 102.209 52.56 103.329 51.28C104.449 49.9467 105.355 48.08 106.049 45.68H109.409C107.702 50.5867 105.489 54.2933 102.769 56.8C100.049 59.2533 96.9021 60.48 93.3288 60.48C91.0354 60.48 89.1954 59.84 87.8088 58.56C86.4754 57.28 85.7021 55.4667 85.4888 53.12C83.8354 55.5733 81.9954 57.4133 79.9688 58.64C77.9954 59.8667 75.8621 60.48 73.5688 60.48C70.2621 60.48 67.6488 59.36 65.7288 57.12C63.8621 54.88 62.9287 51.7067 62.9287 47.6C62.9287 44.6133 63.3821 41.4933 64.2888 38.24C65.1954 34.9867 66.4488 32.0267 68.0488 29.36C70.0221 26.2133 72.3154 23.8133 74.9288 22.16C77.5421 20.4533 80.3954 19.6 83.4888 19.6C85.5688 19.6 87.1688 19.9733 88.2888 20.72C89.4088 21.4133 89.9688 22.4 89.9688 23.68ZM89.2488 27.6C89.2488 26.8 88.9554 26.1067 88.3688 25.52C87.7821 24.88 86.9821 24.56 85.9688 24.56C83.0354 24.56 80.4221 27.0133 78.1288 31.92C75.8888 36.8267 74.7688 41.68 74.7688 46.48C74.7688 48.56 75.0621 50.1333 75.6488 51.2C76.2354 52.2133 77.2754 52.72 78.7688 52.72C80.1554 52.72 81.4888 52.0533 82.7688 50.72C84.1021 49.3867 84.9821 47.7067 85.4088 45.68L89.2488 27.6ZM131.042 46.64C131.042 47.28 131.015 47.84 130.962 48.32C130.909 48.8 130.829 49.2533 130.722 49.68C131.789 49.04 132.829 48.3733 133.842 47.68C134.855 46.9867 135.735 46.32 136.482 45.68H139.842C138.189 47.6 136.349 49.3867 134.322 51.04C132.349 52.64 130.109 54.1867 127.602 55.68C126.162 57.2267 124.322 58.4267 122.082 59.28C119.842 60.08 117.495 60.48 115.042 60.48C111.469 60.48 108.615 59.52 106.482 57.6C104.402 55.6267 103.362 53.1733 103.362 50.24C103.362 48.5867 103.762 47.0933 104.562 45.76C105.362 44.3733 106.375 43.3867 107.602 42.8C109.415 39.5467 111.095 36.08 112.642 32.4C114.242 28.6667 115.842 24.24 117.442 19.12L129.282 17.52C129.442 21.52 129.629 25.1733 129.842 28.48C130.055 31.7867 130.322 35.3867 130.642 39.28C130.802 41.52 130.909 43.0933 130.962 44C131.015 44.9067 131.042 45.7867 131.042 46.64ZM117.922 27.76C117.229 29.9467 116.375 32.24 115.362 34.64C114.402 36.9867 113.095 39.7333 111.442 42.88C112.029 43.1467 112.482 43.52 112.802 44C113.122 44.48 113.282 45.04 113.282 45.68C113.282 46.6933 112.935 47.6 112.242 48.4C111.549 49.2 110.722 49.6 109.762 49.6C109.229 49.6 108.775 49.52 108.402 49.36C108.029 49.1467 107.762 48.88 107.602 48.56C107.602 50.5333 107.975 51.9733 108.722 52.88C109.522 53.7333 110.775 54.16 112.482 54.16C114.669 54.16 116.375 53.52 117.602 52.24C118.829 50.96 119.442 49.12 119.442 46.72C119.442 45.9733 119.415 45.2267 119.362 44.48C119.309 43.68 119.202 42.3733 119.042 40.56C118.775 38.0533 118.562 35.84 118.402 33.92C118.242 32 118.082 29.9467 117.922 27.76ZM156.612 51.44C156.612 50.48 156.719 49.28 156.932 47.84C157.199 46.4 157.705 44.1067 158.452 40.96C159.199 37.92 159.679 35.7333 159.892 34.4C160.105 33.0667 160.212 31.9467 160.212 31.04C160.212 29.7067 159.945 28.6933 159.412 28C158.932 27.3067 158.212 26.96 157.252 26.96C155.972 26.96 154.719 27.7333 153.492 29.28C152.319 30.7733 151.545 32.3467 151.172 34L145.652 60H134.132L145.732 5.6L157.572 4L153.252 24.16C154.585 22.6667 156.025 21.5467 157.572 20.8C159.119 20.0533 160.799 19.68 162.612 19.68C165.439 19.68 167.625 20.4533 169.172 22C170.719 23.5467 171.492 25.7867 171.492 28.72C171.492 29.9467 171.332 31.4133 171.012 33.12C170.745 34.7733 170.185 37.3333 169.332 40.8C168.639 43.52 168.185 45.44 167.972 46.56C167.759 47.68 167.652 48.6133 167.652 49.36C167.652 50.48 167.919 51.3333 168.452 51.92C168.985 52.4533 169.785 52.72 170.852 52.72C172.185 52.72 173.332 52.2667 174.292 51.36C175.252 50.4533 176.345 48.56 177.572 45.68H180.932C179.225 50.64 177.145 54.3467 174.692 56.8C172.292 59.2533 169.412 60.48 166.052 60.48C163.065 60.48 160.745 59.68 159.092 58.08C157.439 56.4267 156.612 54.2133 156.612 51.44ZM190.923 52.72C192.309 52.72 193.536 52.1333 194.603 50.96C195.723 49.7333 196.629 47.9733 197.323 45.68L202.763 20H214.283L208.523 47.2C208.416 47.68 208.336 48.1333 208.283 48.56C208.229 48.9333 208.203 49.3333 208.203 49.76C208.203 50.8267 208.443 51.6 208.923 52.08C209.456 52.5067 210.309 52.72 211.483 52.72C212.869 52.72 214.123 52.1067 215.243 50.88C216.363 49.6533 217.269 47.92 217.962 45.68H221.323C219.616 50.5867 217.403 54.2933 214.683 56.8C211.963 59.2533 208.816 60.48 205.243 60.48C202.949 60.48 201.109 59.84 199.723 58.56C198.336 57.2267 197.536 55.3333 197.323 52.88C195.776 55.44 194.016 57.36 192.043 58.64C190.123 59.8667 187.936 60.48 185.483 60.48C182.816 60.48 180.709 59.6533 179.163 58C177.669 56.2933 176.922 53.92 176.922 50.88C176.922 50.1867 176.976 49.4133 177.082 48.56C177.189 47.6533 177.349 46.6933 177.562 45.68L183.003 20H194.523L188.763 47.2C188.656 47.6267 188.576 48.0267 188.523 48.4C188.523 48.72 188.523 49.0667 188.523 49.44C188.523 50.5067 188.709 51.3333 189.083 51.92C189.509 52.4533 190.123 52.72 190.923 52.72ZM226.433 60H214.913L223.393 20H234.913L233.873 24.96C236.22 22.9867 238.06 21.68 239.393 21.04C240.78 20.3467 242.166 20 243.553 20C245.206 20 246.54 20.5867 247.553 21.76C248.566 22.88 249.073 24.2933 249.073 26C249.073 27.6533 248.54 29.04 247.473 30.16C246.406 31.28 245.02 31.84 243.313 31.84C242.406 31.84 241.686 31.6267 241.153 31.2C240.673 30.7733 240.326 29.8933 240.113 28.56C239.953 27.7067 239.766 27.1733 239.553 26.96C239.34 26.6933 239.046 26.56 238.673 26.56C237.766 26.56 236.913 26.7467 236.113 27.12C235.313 27.4933 234.22 28.32 232.833 29.6L226.433 60ZM247.235 50.88C247.235 50.1867 247.288 49.4133 247.395 48.56C247.502 47.6533 247.662 46.6933 247.875 45.68L256.435 5.6L268.275 4L259.075 47.2C258.968 47.68 258.888 48.1333 258.835 48.56C258.782 48.9333 258.755 49.3333 258.755 49.76C258.755 50.8267 258.995 51.6 259.475 52.08C260.008 52.5067 260.862 52.72 262.035 52.72C263.528 52.72 264.942 52.08 266.275 50.8C267.608 49.4667 268.595 47.76 269.235 45.68H272.595C270.888 50.5333 268.595 54.2133 265.715 56.72C262.835 59.2267 259.528 60.48 255.795 60.48C253.128 60.48 251.022 59.6533 249.475 58C247.982 56.2933 247.235 53.92 247.235 50.88ZM288.573 9.36C288.573 11.12 287.933 12.6133 286.653 13.84C285.426 15.0667 283.933 15.68 282.173 15.68C280.413 15.68 278.919 15.0667 277.693 13.84C276.466 12.6133 275.853 11.12 275.853 9.36C275.853 7.6 276.466 6.10667 277.693 4.88C278.919 3.6 280.413 2.96 282.173 2.96C283.933 2.96 285.426 3.6 286.653 4.88C287.933 6.10667 288.573 7.6 288.573 9.36ZM268.172 50.88C268.172 50.1867 268.226 49.4133 268.332 48.56C268.439 47.6533 268.599 46.6933 268.812 45.68L274.253 20H285.773L280.013 47.2C279.906 47.68 279.826 48.1333 279.773 48.56C279.719 48.9333 279.693 49.3333 279.693 49.76C279.693 50.8267 279.933 51.6 280.413 52.08C280.946 52.5067 281.799 52.72 282.973 52.72C284.466 52.72 285.879 52.08 287.213 50.8C288.546 49.4667 289.533 47.76 290.173 45.68H293.533C291.826 50.5333 289.533 54.2133 286.653 56.72C283.773 59.2267 280.466 60.48 276.733 60.48C274.066 60.48 271.959 59.6533 270.413 58C268.919 56.2933 268.172 53.92 268.172 50.88ZM310.541 4L304.541 32.16L319.981 20H327.901L311.901 31.12C312.647 31.0133 313.181 30.9333 313.501 30.88C313.874 30.8267 314.221 30.8 314.541 30.8C317.261 30.8 319.394 31.6533 320.941 33.36C322.541 35.0667 323.341 37.3333 323.341 40.16C323.341 40.6933 323.314 41.2267 323.261 41.76C323.207 42.24 323.127 42.72 323.021 43.2L322.141 47.2C322.034 47.84 321.927 48.3733 321.821 48.8C321.767 49.2267 321.741 49.5467 321.741 49.76C321.741 50.7733 321.981 51.52 322.461 52C322.994 52.48 323.794 52.72 324.861 52.72C326.194 52.72 327.341 52.2667 328.301 51.36C329.261 50.4533 330.354 48.56 331.581 45.68H334.941C333.287 50.5867 331.234 54.2933 328.781 56.8C326.327 59.2533 323.474 60.48 320.221 60.48C316.967 60.48 314.461 59.7067 312.701 58.16C310.994 56.56 310.141 54.2933 310.141 51.36C310.141 50.72 310.167 50.0533 310.221 49.36C310.327 48.6667 310.461 47.9467 310.621 47.2L311.261 44.08C311.367 43.6 311.447 43.12 311.501 42.64C311.554 42.16 311.581 41.6533 311.581 41.12C311.581 39.84 311.341 38.88 310.861 38.24C310.381 37.6 309.661 37.28 308.701 37.28C307.901 37.28 307.021 37.52 306.061 38C305.154 38.4267 304.061 39.1733 302.781 40.24L298.621 60H287.101L298.701 5.6L310.541 4ZM357.547 23.68V24.16L358.427 20H369.947L362.027 57.12C364.694 56.16 366.774 54.8267 368.267 53.12C369.814 51.36 371.094 48.88 372.107 45.68H375.467C374.24 49.7333 372.48 52.9867 370.187 55.44C367.947 57.8933 364.987 59.6267 361.307 60.64L360.107 66.4C359.147 70.88 357.467 74.2667 355.067 76.56C352.667 78.8533 349.547 80 345.707 80C342.987 80 340.8 79.3067 339.147 77.92C337.547 76.5333 336.747 74.64 336.747 72.24C336.747 69.6267 337.814 67.3067 339.947 65.28C342.134 63.3067 345.414 61.6533 349.787 60.32L350.747 56.08C349.36 57.52 347.867 58.6133 346.267 59.36C344.667 60.1067 342.96 60.48 341.147 60.48C337.84 60.48 335.227 59.36 333.307 57.12C331.44 54.88 330.507 51.7067 330.507 47.6C330.507 44.6133 330.96 41.4933 331.867 38.24C332.774 34.9867 334.027 32.0267 335.627 29.36C337.6 26.2133 339.894 23.8133 342.507 22.16C345.12 20.4533 347.974 19.6 351.067 19.6C353.147 19.6 354.747 19.9733 355.867 20.72C356.987 21.4133 357.547 22.4 357.547 23.68ZM356.827 27.52C356.774 26.6667 356.454 25.9733 355.867 25.44C355.28 24.8533 354.507 24.56 353.547 24.56C350.614 24.56 348 27.0133 345.707 31.92C343.467 36.8267 342.347 41.68 342.347 46.48C342.347 48.56 342.64 50.1333 343.227 51.2C343.814 52.2133 344.854 52.72 346.347 52.72C347.627 52.72 348.88 52.1333 350.107 50.96C351.387 49.7867 352.267 48.2933 352.747 46.48L356.827 27.52ZM348.987 64.32C346.32 65.3333 344.347 66.3733 343.067 67.44C341.787 68.56 341.147 69.7867 341.147 71.12C341.147 71.8133 341.414 72.4267 341.947 72.96C342.48 73.4933 343.12 73.76 343.867 73.76C344.774 73.76 345.654 73.12 346.507 71.84C347.36 70.56 348.027 68.8267 348.507 66.64L348.987 64.32ZM398.094 23.68V24.24L398.974 20H410.494L404.734 47.2C404.627 47.68 404.547 48.1333 404.494 48.56C404.44 48.9333 404.414 49.3333 404.414 49.76C404.414 50.9333 404.68 51.8133 405.214 52.4C405.747 52.9333 406.574 53.2 407.694 53.2C409.08 53.2 410.334 52.56 411.454 51.28C412.574 49.9467 413.48 48.08 414.174 45.68H417.534C415.827 50.5867 413.614 54.2933 410.894 56.8C408.174 59.2533 405.027 60.48 401.454 60.48C399.16 60.48 397.32 59.84 395.934 58.56C394.6 57.28 393.827 55.4667 393.614 53.12C391.96 55.5733 390.12 57.4133 388.094 58.64C386.12 59.8667 383.987 60.48 381.694 60.48C378.387 60.48 375.774 59.36 373.854 57.12C371.987 54.88 371.054 51.7067 371.054 47.6C371.054 44.6133 371.507 41.4933 372.414 38.24C373.32 34.9867 374.574 32.0267 376.174 29.36C378.147 26.2133 380.44 23.8133 383.054 22.16C385.667 20.4533 388.52 19.6 391.614 19.6C393.694 19.6 395.294 19.9733 396.414 20.72C397.534 21.4133 398.094 22.4 398.094 23.68ZM397.374 27.6C397.374 26.8 397.08 26.1067 396.494 25.52C395.907 24.88 395.107 24.56 394.094 24.56C391.16 24.56 388.547 27.0133 386.254 31.92C384.014 36.8267 382.894 41.68 382.894 46.48C382.894 48.56 383.187 50.1333 383.774 51.2C384.36 52.2133 385.4 52.72 386.894 52.72C388.28 52.72 389.614 52.0533 390.894 50.72C392.227 49.3867 393.107 47.7067 393.534 45.68L397.374 27.6ZM11.64 144.48C8.06667 144.48 5.29333 143.6 3.32 141.84C1.4 140.027 0.44 137.493 0.44 134.24C0.44 133.493 0.493333 132.747 0.6 132C0.706667 131.253 0.84 130.48 1 129.68L9.56 89.6L21.4 88L17.56 106C18.84 105.2 19.96 104.64 20.92 104.32C21.9333 103.947 23 103.76 24.12 103.76C27.2667 103.76 29.6133 104.907 31.16 107.2C32.76 109.44 33.56 112.853 33.56 117.44C33.56 120.587 33.08 123.813 32.12 127.12C31.16 130.427 29.8267 133.307 28.12 135.76C26.1467 138.64 23.7733 140.827 21 142.32C18.2267 143.76 15.1067 144.48 11.64 144.48ZM11.88 133.04C11.88 134.267 12.2267 135.2 12.92 135.84C13.6667 136.427 14.7333 136.72 16.12 136.72C18.52 136.72 20.68 134.613 22.6 130.4C24.52 126.187 25.48 121.76 25.48 117.12C25.48 114.88 25.08 113.04 24.28 111.6C23.5333 110.16 22.52 109.44 21.24 109.44C20.3867 109.44 19.48 109.573 18.52 109.84C17.56 110.107 16.8933 110.453 16.52 110.88L12.12 131.2C12.0667 131.52 12.0133 131.84 11.96 132.16C11.9067 132.48 11.88 132.773 11.88 133.04ZM56.3069 93.36C56.3069 95.12 55.6669 96.6133 54.3869 97.84C53.1602 99.0667 51.6669 99.68 49.9069 99.68C48.1469 99.68 46.6535 99.0667 45.4269 97.84C44.2002 96.6133 43.5869 95.12 43.5869 93.36C43.5869 91.6 44.2002 90.1067 45.4269 88.88C46.6535 87.6 48.1469 86.96 49.9069 86.96C51.6669 86.96 53.1602 87.6 54.3869 88.88C55.6669 90.1067 56.3069 91.6 56.3069 93.36ZM35.9069 134.88C35.9069 134.187 35.9602 133.413 36.0669 132.56C36.1735 131.653 36.3335 130.693 36.5469 129.68L41.9869 104H53.5069L47.7469 131.2C47.6402 131.68 47.5602 132.133 47.5069 132.56C47.4535 132.933 47.4269 133.333 47.4269 133.76C47.4269 134.827 47.6669 135.6 48.1469 136.08C48.6802 136.507 49.5335 136.72 50.7069 136.72C52.2002 136.72 53.6135 136.08 54.9469 134.8C56.2802 133.467 57.2669 131.76 57.9069 129.68H61.2669C59.5602 134.533 57.2669 138.213 54.3869 140.72C51.5069 143.227 48.2002 144.48 44.4669 144.48C41.8002 144.48 39.6935 143.653 38.1469 142C36.6535 140.293 35.9069 137.92 35.9069 134.88ZM74.275 138C75.4483 138.107 76.3283 138.187 76.915 138.24C77.555 138.293 78.115 138.32 78.595 138.32C79.7683 138.32 80.6483 138.187 81.235 137.92C81.875 137.653 82.2483 137.253 82.355 136.72C81.875 136.667 81.5017 136.507 81.235 136.24C80.9683 135.92 80.835 135.52 80.835 135.04C80.835 134.133 81.2617 133.333 82.115 132.64C82.9683 131.947 84.035 131.6 85.315 131.6C86.435 131.6 87.2883 131.947 87.875 132.64C88.515 133.333 88.835 134.267 88.835 135.44C88.835 137.627 87.875 139.6 85.955 141.36C84.0883 143.12 81.795 144 79.075 144H57.875L78.275 108.32H73.795C72.1417 108.32 70.995 108.427 70.355 108.64C69.715 108.853 69.395 109.173 69.395 109.6C69.395 109.6 69.5283 109.707 69.795 109.92C70.115 110.133 70.275 110.613 70.275 111.36C70.275 112.64 69.8483 113.68 68.995 114.48C68.195 115.227 67.1817 115.6 65.955 115.6C64.8883 115.6 64.0083 115.28 63.315 114.64C62.6217 114 62.275 113.147 62.275 112.08C62.275 110.107 63.1817 108.267 64.995 106.56C66.8617 104.853 69.0483 104 71.555 104H92.115L72.515 137.84C72.675 137.84 72.8617 137.867 73.075 137.92C73.3417 137.92 73.7417 137.947 74.275 138ZM120.078 144.48C116.504 144.48 113.731 143.6 111.758 141.84C109.838 140.027 108.877 137.493 108.877 134.24C108.877 133.493 108.931 132.747 109.037 132C109.144 131.253 109.277 130.48 109.438 129.68L117.998 89.6L129.838 88L125.998 106C127.278 105.2 128.398 104.64 129.358 104.32C130.371 103.947 131.438 103.76 132.558 103.76C135.704 103.76 138.051 104.907 139.598 107.2C141.198 109.44 141.998 112.853 141.998 117.44C141.998 120.587 141.518 123.813 140.558 127.12C139.598 130.427 138.264 133.307 136.558 135.76C134.584 138.64 132.211 140.827 129.438 142.32C126.664 143.76 123.544 144.48 120.078 144.48ZM120.318 133.04C120.318 134.267 120.664 135.2 121.358 135.84C122.104 136.427 123.171 136.72 124.558 136.72C126.958 136.72 129.118 134.613 131.038 130.4C132.958 126.187 133.918 121.76 133.918 117.12C133.918 114.88 133.518 113.04 132.718 111.6C131.971 110.16 130.958 109.44 129.678 109.44C128.824 109.44 127.918 109.573 126.958 109.84C125.998 110.107 125.331 110.453 124.958 110.88L120.558 131.2C120.504 131.52 120.451 131.84 120.398 132.16C120.344 132.48 120.318 132.773 120.318 133.04ZM164.744 93.36C164.744 95.12 164.104 96.6133 162.824 97.84C161.598 99.0667 160.104 99.68 158.344 99.68C156.584 99.68 155.091 99.0667 153.864 97.84C152.638 96.6133 152.024 95.12 152.024 93.36C152.024 91.6 152.638 90.1067 153.864 88.88C155.091 87.6 156.584 86.96 158.344 86.96C160.104 86.96 161.598 87.6 162.824 88.88C164.104 90.1067 164.744 91.6 164.744 93.36ZM144.344 134.88C144.344 134.187 144.398 133.413 144.504 132.56C144.611 131.653 144.771 130.693 144.984 129.68L150.424 104H161.944L156.184 131.2C156.078 131.68 155.998 132.133 155.944 132.56C155.891 132.933 155.864 133.333 155.864 133.76C155.864 134.827 156.104 135.6 156.584 136.08C157.118 136.507 157.971 136.72 159.144 136.72C160.638 136.72 162.051 136.08 163.384 134.8C164.718 133.467 165.704 131.76 166.344 129.68H169.704C167.998 134.533 165.704 138.213 162.824 140.72C159.944 143.227 156.638 144.48 152.904 144.48C150.238 144.48 148.131 143.653 146.584 142C145.091 140.293 144.344 137.92 144.344 134.88ZM165.672 134.88C165.672 134.187 165.726 133.413 165.832 132.56C165.939 131.653 166.099 130.693 166.312 129.68L174.873 89.6L186.713 88L177.513 131.2C177.406 131.68 177.326 132.133 177.273 132.56C177.219 132.933 177.193 133.333 177.193 133.76C177.193 134.827 177.433 135.6 177.913 136.08C178.446 136.507 179.299 136.72 180.473 136.72C181.966 136.72 183.379 136.08 184.713 134.8C186.046 133.467 187.033 131.76 187.673 129.68H191.033C189.326 134.533 187.033 138.213 184.153 140.72C181.273 143.227 177.966 144.48 174.233 144.48C171.566 144.48 169.459 143.653 167.913 142C166.419 140.293 165.672 137.92 165.672 134.88ZM211.609 107.68V108.24L212.489 104H224.009L218.249 131.2C218.143 131.68 218.063 132.133 218.009 132.56C217.956 132.933 217.929 133.333 217.929 133.76C217.929 134.933 218.196 135.813 218.729 136.4C219.263 136.933 220.089 137.2 221.209 137.2C222.596 137.2 223.849 136.56 224.969 135.28C226.089 133.947 226.996 132.08 227.689 129.68H231.049C229.343 134.587 227.129 138.293 224.409 140.8C221.689 143.253 218.543 144.48 214.969 144.48C212.676 144.48 210.836 143.84 209.449 142.56C208.116 141.28 207.343 139.467 207.129 137.12C205.476 139.573 203.636 141.413 201.609 142.64C199.636 143.867 197.503 144.48 195.209 144.48C191.903 144.48 189.289 143.36 187.369 141.12C185.503 138.88 184.569 135.707 184.569 131.6C184.569 128.613 185.023 125.493 185.929 122.24C186.836 118.987 188.089 116.027 189.689 113.36C191.663 110.213 193.956 107.813 196.569 106.16C199.183 104.453 202.036 103.6 205.129 103.6C207.209 103.6 208.809 103.973 209.929 104.72C211.049 105.413 211.609 106.4 211.609 107.68ZM210.889 111.6C210.889 110.8 210.596 110.107 210.009 109.52C209.423 108.88 208.623 108.56 207.609 108.56C204.676 108.56 202.063 111.013 199.769 115.92C197.529 120.827 196.409 125.68 196.409 130.48C196.409 132.56 196.703 134.133 197.289 135.2C197.876 136.213 198.916 136.72 200.409 136.72C201.796 136.72 203.129 136.053 204.409 134.72C205.743 133.387 206.623 131.707 207.049 129.68L210.889 111.6ZM247.159 135.44C247.159 134.48 247.265 133.28 247.479 131.84C247.745 130.4 248.252 128.107 248.999 124.96C249.745 121.92 250.225 119.733 250.439 118.4C250.652 117.067 250.759 115.947 250.759 115.04C250.759 113.707 250.519 112.693 250.039 112C249.559 111.307 248.839 110.96 247.879 110.96C246.599 110.96 245.399 111.627 244.279 112.96C243.212 114.24 242.332 116.027 241.639 118.32L236.199 144H224.679L233.159 104H244.679L243.799 108.16C245.132 106.667 246.572 105.547 248.119 104.8C249.665 104.053 251.345 103.68 253.159 103.68C255.985 103.68 258.172 104.453 259.719 106C261.265 107.547 262.039 109.787 262.039 112.72C262.039 113.947 261.879 115.413 261.559 117.12C261.292 118.773 260.732 121.333 259.879 124.8C259.185 127.52 258.732 129.44 258.519 130.56C258.305 131.68 258.199 132.613 258.199 133.36C258.199 134.48 258.465 135.333 258.999 135.92C259.532 136.453 260.332 136.72 261.399 136.72C262.732 136.72 263.879 136.267 264.839 135.36C265.799 134.453 266.892 132.56 268.119 129.68H271.479C269.772 134.64 267.692 138.347 265.239 140.8C262.839 143.253 259.959 144.48 256.599 144.48C253.612 144.48 251.292 143.68 249.639 142.08C247.985 140.427 247.159 138.213 247.159 135.44ZM314.813 110.96C314.813 115.387 313 119.253 309.373 122.56C305.746 125.813 301.426 127.573 296.413 127.84C296.36 128.747 296.306 129.44 296.253 129.92C296.253 130.347 296.253 130.72 296.253 131.04C296.253 133.493 296.653 135.227 297.453 136.24C298.306 137.253 299.826 137.76 302.013 137.76C304.52 137.76 306.813 137.2 308.893 136.08C311.026 134.907 313.453 132.773 316.173 129.68H318.893C315.8 134.693 312.44 138.427 308.813 140.88C305.186 143.28 301.213 144.48 296.893 144.48C292.786 144.48 289.666 143.413 287.533 141.28C285.453 139.147 284.413 135.973 284.413 131.76C284.413 128.72 284.893 125.493 285.853 122.08C286.813 118.667 288.093 115.627 289.693 112.96C291.666 109.76 294.013 107.36 296.733 105.76C299.506 104.107 302.6 103.28 306.013 103.28C308.946 103.28 311.133 103.92 312.573 105.2C314.066 106.427 314.813 108.347 314.813 110.96ZM306.653 107.52C304.84 107.52 303 109.147 301.133 112.4C299.32 115.6 297.96 119.467 297.053 124C300.146 123.787 302.84 122.373 305.133 119.76C307.48 117.093 308.653 114.107 308.653 110.8C308.653 109.68 308.493 108.853 308.173 108.32C307.853 107.787 307.346 107.52 306.653 107.52ZM324.714 144H313.194L321.674 104H333.194L332.154 108.96C334.501 106.987 336.341 105.68 337.674 105.04C339.061 104.347 340.448 104 341.834 104C343.488 104 344.821 104.587 345.834 105.76C346.848 106.88 347.354 108.293 347.354 110C347.354 111.653 346.821 113.04 345.754 114.16C344.688 115.28 343.301 115.84 341.594 115.84C340.688 115.84 339.968 115.627 339.434 115.2C338.954 114.773 338.608 113.893 338.394 112.56C338.234 111.707 338.048 111.173 337.834 110.96C337.621 110.693 337.328 110.56 336.954 110.56C336.048 110.56 335.194 110.747 334.394 111.12C333.594 111.493 332.501 112.32 331.114 113.6L324.714 144ZM366.854 93.36C366.854 95.12 366.214 96.6133 364.934 97.84C363.707 99.0667 362.214 99.68 360.454 99.68C358.694 99.68 357.2 99.0667 355.974 97.84C354.747 96.6133 354.134 95.12 354.134 93.36C354.134 91.6 354.747 90.1067 355.974 88.88C357.2 87.6 358.694 86.96 360.454 86.96C362.214 86.96 363.707 87.6 364.934 88.88C366.214 90.1067 366.854 91.6 366.854 93.36ZM346.454 134.88C346.454 134.187 346.507 133.413 346.614 132.56C346.72 131.653 346.88 130.693 347.094 129.68L352.534 104H364.054L358.294 131.2C358.187 131.68 358.107 132.133 358.054 132.56C358 132.933 357.974 133.333 357.974 133.76C357.974 134.827 358.214 135.6 358.694 136.08C359.227 136.507 360.08 136.72 361.254 136.72C362.747 136.72 364.16 136.08 365.494 134.8C366.827 133.467 367.814 131.76 368.454 129.68H371.814C370.107 134.533 367.814 138.213 364.934 140.72C362.054 143.227 358.747 144.48 355.014 144.48C352.347 144.48 350.24 143.653 348.694 142C347.2 140.293 346.454 137.92 346.454 134.88ZM393.542 130.64C393.542 131.28 393.515 131.84 393.462 132.32C393.409 132.8 393.329 133.253 393.222 133.68C394.289 133.04 395.329 132.373 396.342 131.68C397.355 130.987 398.235 130.32 398.982 129.68H402.342C400.689 131.6 398.849 133.387 396.822 135.04C394.849 136.64 392.609 138.187 390.102 139.68C388.662 141.227 386.822 142.427 384.582 143.28C382.342 144.08 379.995 144.48 377.542 144.48C373.969 144.48 371.115 143.52 368.982 141.6C366.902 139.627 365.862 137.173 365.862 134.24C365.862 132.587 366.262 131.093 367.062 129.76C367.862 128.373 368.875 127.387 370.102 126.8C371.915 123.547 373.595 120.08 375.142 116.4C376.742 112.667 378.342 108.24 379.942 103.12L391.782 101.52C391.942 105.52 392.129 109.173 392.342 112.48C392.555 115.787 392.822 119.387 393.142 123.28C393.302 125.52 393.409 127.093 393.462 128C393.515 128.907 393.542 129.787 393.542 130.64ZM380.422 111.76C379.729 113.947 378.875 116.24 377.862 118.64C376.902 120.987 375.595 123.733 373.942 126.88C374.529 127.147 374.982 127.52 375.302 128C375.622 128.48 375.782 129.04 375.782 129.68C375.782 130.693 375.435 131.6 374.742 132.4C374.049 133.2 373.222 133.6 372.262 133.6C371.729 133.6 371.275 133.52 370.902 133.36C370.529 133.147 370.262 132.88 370.102 132.56C370.102 134.533 370.475 135.973 371.222 136.88C372.022 137.733 373.275 138.16 374.982 138.16C377.169 138.16 378.875 137.52 380.102 136.24C381.329 134.96 381.942 133.12 381.942 130.72C381.942 129.973 381.915 129.227 381.862 128.48C381.809 127.68 381.702 126.373 381.542 124.56C381.275 122.053 381.062 119.84 380.902 117.92C380.742 116 380.582 113.947 380.422 111.76ZM419.112 135.44C419.112 134.48 419.219 133.28 419.432 131.84C419.699 130.4 420.205 128.107 420.952 124.96C421.699 121.92 422.179 119.733 422.392 118.4C422.605 117.067 422.712 115.947 422.712 115.04C422.712 113.707 422.445 112.693 421.912 112C421.432 111.307 420.712 110.96 419.752 110.96C418.472 110.96 417.219 111.733 415.992 113.28C414.819 114.773 414.045 116.347 413.672 118L408.152 144H396.632L408.232 89.6L420.072 88L415.752 108.16C417.085 106.667 418.525 105.547 420.072 104.8C421.619 104.053 423.299 103.68 425.112 103.68C427.939 103.68 430.125 104.453 431.672 106C433.219 107.547 433.992 109.787 433.992 112.72C433.992 113.947 433.832 115.413 433.512 117.12C433.245 118.773 432.685 121.333 431.832 124.8C431.139 127.52 430.685 129.44 430.472 130.56C430.259 131.68 430.152 132.613 430.152 133.36C430.152 134.48 430.419 135.333 430.952 135.92C431.485 136.453 432.285 136.72 433.352 136.72C434.685 136.72 435.832 136.267 436.792 135.36C437.752 134.453 438.845 132.56 440.072 129.68H443.432C441.725 134.64 439.645 138.347 437.192 140.8C434.792 143.253 431.912 144.48 428.552 144.48C425.565 144.48 423.245 143.68 421.592 142.08C419.939 140.427 419.112 138.213 419.112 135.44ZM459.823 93.36C459.823 95.12 459.183 96.6133 457.903 97.84C456.676 99.0667 455.183 99.68 453.423 99.68C451.663 99.68 450.169 99.0667 448.943 97.84C447.716 96.6133 447.103 95.12 447.103 93.36C447.103 91.6 447.716 90.1067 448.943 88.88C450.169 87.6 451.663 86.96 453.423 86.96C455.183 86.96 456.676 87.6 457.903 88.88C459.183 90.1067 459.823 91.6 459.823 93.36ZM439.422 134.88C439.422 134.187 439.476 133.413 439.582 132.56C439.689 131.653 439.849 130.693 440.062 129.68L445.503 104H457.023L451.263 131.2C451.156 131.68 451.076 132.133 451.023 132.56C450.969 132.933 450.943 133.333 450.943 133.76C450.943 134.827 451.183 135.6 451.663 136.08C452.196 136.507 453.049 136.72 454.223 136.72C455.716 136.72 457.129 136.08 458.463 134.8C459.796 133.467 460.783 131.76 461.423 129.68H464.783C463.076 134.533 460.783 138.213 457.903 140.72C455.023 143.227 451.716 144.48 447.983 144.48C445.316 144.48 443.209 143.653 441.663 142C440.169 140.293 439.422 137.92 439.422 134.88ZM480.206 135.44C480.206 134.48 480.312 133.28 480.526 131.84C480.792 130.4 481.299 128.107 482.046 124.96C482.792 121.92 483.272 119.733 483.486 118.4C483.699 117.067 483.806 115.947 483.806 115.04C483.806 113.707 483.566 112.693 483.086 112C482.606 111.307 481.886 110.96 480.926 110.96C479.646 110.96 478.446 111.627 477.326 112.96C476.259 114.24 475.379 116.027 474.686 118.32L469.246 144H457.726L466.206 104H477.726L476.846 108.16C478.179 106.667 479.619 105.547 481.166 104.8C482.712 104.053 484.392 103.68 486.206 103.68C489.032 103.68 491.219 104.453 492.766 106C494.312 107.547 495.086 109.787 495.086 112.72C495.086 113.947 494.926 115.413 494.606 117.12C494.339 118.773 493.779 121.333 492.926 124.8C492.232 127.52 491.779 129.44 491.566 130.56C491.352 131.68 491.246 132.613 491.246 133.36C491.246 134.48 491.512 135.333 492.046 135.92C492.579 136.453 493.379 136.72 494.446 136.72C495.779 136.72 496.926 136.267 497.886 135.36C498.846 134.453 499.939 132.56 501.166 129.68H504.526C502.819 134.64 500.739 138.347 498.286 140.8C495.886 143.253 493.006 144.48 489.646 144.48C486.659 144.48 484.339 143.68 482.686 142.08C481.032 140.427 480.206 138.213 480.206 135.44ZM527.625 107.68V108.16L528.505 104H540.025L532.105 141.12C534.772 140.16 536.852 138.827 538.345 137.12C539.892 135.36 541.172 132.88 542.185 129.68H545.545C544.318 133.733 542.558 136.987 540.265 139.44C538.025 141.893 535.065 143.627 531.385 144.64L530.185 150.4C529.225 154.88 527.545 158.267 525.145 160.56C522.745 162.853 519.625 164 515.785 164C513.065 164 510.878 163.307 509.225 161.92C507.625 160.533 506.825 158.64 506.825 156.24C506.825 153.627 507.892 151.307 510.025 149.28C512.212 147.307 515.492 145.653 519.865 144.32L520.825 140.08C519.438 141.52 517.945 142.613 516.345 143.36C514.745 144.107 513.038 144.48 511.225 144.48C507.918 144.48 505.305 143.36 503.385 141.12C501.518 138.88 500.585 135.707 500.585 131.6C500.585 128.613 501.038 125.493 501.945 122.24C502.852 118.987 504.105 116.027 505.705 113.36C507.678 110.213 509.972 107.813 512.585 106.16C515.198 104.453 518.052 103.6 521.145 103.6C523.225 103.6 524.825 103.973 525.945 104.72C527.065 105.413 527.625 106.4 527.625 107.68ZM526.905 111.52C526.852 110.667 526.532 109.973 525.945 109.44C525.358 108.853 524.585 108.56 523.625 108.56C520.692 108.56 518.078 111.013 515.785 115.92C513.545 120.827 512.425 125.68 512.425 130.48C512.425 132.56 512.718 134.133 513.305 135.2C513.892 136.213 514.932 136.72 516.425 136.72C517.705 136.72 518.958 136.133 520.185 134.96C521.465 133.787 522.345 132.293 522.825 130.48L526.905 111.52ZM519.065 148.32C516.398 149.333 514.425 150.373 513.145 151.44C511.865 152.56 511.225 153.787 511.225 155.12C511.225 155.813 511.492 156.427 512.025 156.96C512.558 157.493 513.198 157.76 513.945 157.76C514.852 157.76 515.732 157.12 516.585 155.84C517.438 154.56 518.105 152.827 518.585 150.64L519.065 148.32ZM555.692 88H567.212L556.812 125.52H550.012L555.692 88ZM544.892 137.6C544.892 135.84 545.505 134.347 546.732 133.12C548.012 131.893 549.532 131.28 551.292 131.28C553.052 131.28 554.545 131.893 555.772 133.12C556.999 134.347 557.612 135.84 557.612 137.6C557.612 139.36 556.999 140.88 555.772 142.16C554.545 143.387 553.052 144 551.292 144C549.532 144 548.012 143.387 546.732 142.16C545.505 140.88 544.892 139.36 544.892 137.6Z" fill="white"/>
</svg>
