<?xml version="1.0" encoding="UTF-8"?>
<svg id="Layer_1" data-name="Layer 1" xmlns="http://www.w3.org/2000/svg" viewBox="0 0 3080.57 688.35">
  <defs>
    <style>
      .cls-1, .cls-2, .cls-3 {
        stroke-miterlimit: 10;
      }

      .cls-1, .cls-2, .cls-3, .cls-4 {
        stroke: #fff;
      }

      .cls-1, .cls-4 {
        stroke-width: 30px;
      }

      .cls-3 {
        stroke-width: 15px;
      }
    </style>
  </defs>
  <g>
    <g>
      <path class="cls-4" d="M1145.64,189.87v126.49c0,55.22-15.29,70.51-70.51,70.51h-271.52v-14.9h271.14c46.62,0,55.6-8.98,55.6-55.6v-126.49c0-46.62-8.98-55.6-55.6-55.6h-271.14v-14.9h271.52c55.22,0,70.51,15.29,70.51,70.51Z"/>
      <rect class="cls-4" x="1313.77" y="119.36" width="15.29" height="267.51"/>
      <path class="cls-4" d="M1839.23,134.27h-271.14c-46.62,0-55.6,8.98-55.6,55.6v126.49c0,46.62,8.98,55.6,55.6,55.6h255.85v-111.4h-155.73v-14.9h171.01v141.21h-271.52c-55.22,0-70.51-15.29-70.51-70.51v-126.49c0-55.22,15.29-70.51,70.51-70.51h271.52v14.9Z"/>
      <rect class="cls-4" x="2005.45" y="119.36" width="15.29" height="267.51"/>
      <polygon class="cls-4" points="2514.85 134.27 2339.44 134.27 2339.44 386.87 2324.16 386.87 2324.16 134.27 2148.75 134.27 2148.75 119.36 2514.85 119.36 2514.85 134.27"/>
      <rect class="cls-4" x="2909.86" y="119.36" width="15.29" height="267.51"/>
      <rect class="cls-4" x="3050.29" y="119.36" width="15.29" height="267.51"/>
      <path class="cls-1" d="M2778.02,386.59c0-85.76,0-171.52,0-257.27-112.33,85.59-224.66,171.18-336.99,256.77h.19c-.06.05-.13.1-.19.15h19.1c50.33-38.41,100.66-76.78,150.97-115.14,50.47-38.44,100.94-76.89,151.41-115.33v231.11h15.51v-.28h0Z"/>
    </g>
    <g>
      <path class="cls-2" d="M907.82,549.63h-4.29v-89.19l-53.48,52.05h-2.36l-58.57-56.66v-1.08h5.73l54.12,52.46,54.12-52.46h4.72v94.88Z"/>
      <path class="cls-2" d="M1020.39,461.39l-52.46,88.24h-4.93v-1.08l55.84-93.8h3.22l55.84,93.8v1.08h-4.98l-52.51-88.24Z"/>
      <path class="cls-2" d="M1219.56,479.76v.07c0,19.59-4.29,25.01-19.77,25.01h-16.45l40.08,43.71v1.08h-5.25l-43.24-47.44v-2.64h24.76c13.07,0,15.59-3.19,15.59-19.72v-.07c0-16.54-2.52-19.72-15.59-19.72h-76.79v-5.29h76.9c15.49,0,19.77,5.42,19.77,25.01Z"/>
      <path class="cls-2" d="M1293.07,454.75v94.88h-4.29v-94.88h4.29ZM1296.07,500.7l68.8-45.95h7.23v1.08l-69.5,46.15,70.63,46.56v1.08h-7.82l-69.34-45.95v-2.98Z"/>
      <path class="cls-2" d="M1432.16,454.75h83.59v5.29h-83.59v-5.29ZM1432.16,544.34h84.67v5.29h-84.67v-5.29ZM1459.81,499.55v5.29h-26.58v-5.29h26.58Z"/>
      <path class="cls-2" d="M1675.75,460.04h-49.19v89.6h-4.29v-89.6h-49.19v-5.29h102.67v5.29Z"/>
      <path class="cls-2" d="M1737.37,454.75v94.88h-4.29v-94.88h4.29Z"/>
      <path class="cls-2" d="M1811.31,462.81v86.82h-4.29v-96.24h2.14l85.31,88.44v-87.09h4.29v96.24h-2.14l-85.31-88.17Z"/>
      <path class="cls-2" d="M2063.26,460.04h-76.04c-13.07,0-15.59,3.19-15.59,19.72v44.87c0,16.54,2.52,19.72,15.59,19.72h71.75v-39.51h-43.67v-5.29h47.96v50.08h-76.14c-15.49,0-19.77-5.42-19.77-25.01v-44.87c0-19.59,4.29-25.01,19.77-25.01h76.14v5.29Z"/>
      <path class="cls-2" d="M2235.3,461.39l-52.46,88.24h-4.93v-1.08l55.84-93.8h3.22l55.84,93.8v1.08h-4.98l-52.51-88.24Z"/>
      <path class="cls-2" d="M2442.83,460.04h-76.04c-13.08,0-15.59,3.19-15.59,19.72v44.87c0,16.54,2.52,19.72,15.59,19.72h71.75v-39.51h-43.67v-5.29h47.96v50.08h-76.14c-15.49,0-19.77-5.42-19.77-25.01v-44.87c0-19.59,4.29-25.01,19.77-25.01h76.14v5.29Z"/>
      <path class="cls-2" d="M2510.87,454.75h83.59v5.29h-83.59v-5.29ZM2510.87,544.34h84.66v5.29h-84.66v-5.29ZM2538.52,499.55v5.29h-26.58v-5.29h26.58Z"/>
      <path class="cls-2" d="M2668.4,462.81v86.82h-4.29v-96.24h2.14l85.31,88.44v-87.09h4.29v96.24h-2.14l-85.31-88.17Z"/>
      <path class="cls-2" d="M2920.35,460.04h-76.04c-13.08,0-15.59,3.19-15.59,19.72v44.87c0,16.54,2.52,19.72,15.59,19.72h76.04v5.29h-76.14c-15.49,0-19.77-5.42-19.77-25.01v-44.87c0-19.59,4.29-25.01,19.77-25.01h76.14v5.29Z"/>
      <path class="cls-2" d="M3022.58,511.75l49.08-57h5.47v1.08l-52.41,60.52v33.28h-4.29v-33.28l-52.41-60.52v-1.08h5.47l49.08,57Z"/>
    </g>
  </g>
  <g>
    <g>
      <path class="cls-3" d="M351.75,116.79c0,4.55-3.79,7.58-7.58,7.58-121.27,0-219.81,98.54-219.81,219.81s98.54,219.81,219.81,219.81,219.81-98.54,219.81-219.81c0-4.55,3.03-7.58,7.58-7.58,3.79,0,7.58,3.03,7.58,7.58,0,129.61-105.36,234.97-234.97,234.97s-234.97-105.36-234.97-234.97,105.36-234.97,234.97-234.97c3.79,0,7.58,3.03,7.58,7.58Z"/>
      <path class="cls-3" d="M344.17,582.39c-131.35,0-238.22-106.86-238.22-238.22s106.86-238.22,238.22-238.22c5.21,0,10.83,4.14,10.83,10.83s-5.62,10.83-10.83,10.83c-119.41,0-216.56,97.15-216.56,216.56s97.15,216.56,216.56,216.56,216.56-97.15,216.56-216.56c0-6.38,4.45-10.83,10.83-10.83,5.21,0,10.83,4.14,10.83,10.83,0,131.35-106.87,238.22-238.22,238.22ZM344.17,112.46c-127.77,0-231.72,103.95-231.72,231.72s103.95,231.72,231.72,231.72,231.72-103.95,231.72-231.72c0-2.67-2.25-4.33-4.33-4.33-2.75,0-4.33,1.58-4.33,4.33,0,123-100.06,223.06-223.06,223.06s-223.06-100.06-223.06-223.06,100.06-223.06,223.06-223.06c2.08,0,4.33-1.66,4.33-4.33s-2.25-4.33-4.33-4.33Z"/>
    </g>
    <path class="cls-3" d="M7.5,344.17V18.36c0-6.52,4.34-10.86,10.86-10.86h325.81c5.43,0,10.86,4.34,10.86,10.86,0,6.51-5.43,10.86-10.86,10.86H29.22v314.95c0,6.51-5.43,10.86-10.86,10.86-6.52,0-10.86-4.35-10.86-10.86ZM333.31,669.99c0-6.51,4.34-10.86,10.86-10.86h314.95v-314.95c0-6.52,4.34-10.86,10.86-10.86,5.43,0,10.86,4.34,10.86,10.86v325.81c0,6.52-5.43,10.86-10.86,10.86h-325.81c-6.52,0-10.86-4.34-10.86-10.86Z"/>
  </g>
</svg>